HIERARCHY
ROOT Hips
{
	OFFSET 0.000000 35.082581 0.000000
	CHANNELS 6 Xposition Yposition Zposition Xrotation Yrotation Zrotation 
	JOINT Spine
	{
		OFFSET 0.000000 6.876099 0.125700
		CHANNELS 3 Xrotation Yrotation Zrotation
		JOINT Spine1
		{
			OFFSET 0.000000 5.730043 0.104720
			CHANNELS 3 Xrotation Yrotation Zrotation
			JOINT Spine1_split
			{
				OFFSET 0.000000 5.730043 0.104720
				CHANNELS 3 Xrotation Yrotation Zrotation
				JOINT Spine2
				{
					OFFSET 0.000000 5.730043 0.104720
					CHANNELS 3 Xrotation Yrotation Zrotation
					JOINT Neck
					{
						OFFSET 0.000000 10.314075 0.188496
						CHANNELS 3 Xrotation Yrotation Zrotation
						JOINT Head
						{
							OFFSET 0.000000 7.643700 -2.377400
							CHANNELS 3 Xrotation Yrotation Zrotation
							JOINT HeadTop_End
							{
								OFFSET 0.000000 43.788605 -13.619600
								CHANNELS 3 Xrotation Yrotation Zrotation
								End Site
								{
									OFFSET 0.000000 0.000000 0.000000
								}
							}
						}
					}
					JOINT LeftShoulder
					{
						OFFSET 2.196100 4.412489 0.087492
						CHANNELS 3 Xrotation Yrotation Zrotation
						JOINT LeftShoulder_split
						{
							OFFSET 2.196100 4.412489 0.087492
							CHANNELS 3 Xrotation Yrotation Zrotation
							JOINT LeftArm
							{
								OFFSET 8.771219 -2.981674 -0.026999
								CHANNELS 3 Xrotation Yrotation Zrotation
								JOINT LeftForeArm
								{
									OFFSET 8.512804 0.000000 -0.000000
									CHANNELS 3 Xrotation Yrotation Zrotation
									JOINT LeftHand
									{
										OFFSET 18.484802 0.000000 -0.000000
										CHANNELS 3 Xrotation Yrotation Zrotation
										JOINT LeftHandThumb1
										{
											OFFSET 2.499420 -1.158070 2.653252
											CHANNELS 3 Xrotation Yrotation Zrotation
											JOINT LeftHandThumb2
											{
												OFFSET 2.370079 -1.368366 1.368366
												CHANNELS 3 Xrotation Yrotation Zrotation
												JOINT LeftHandThumb3
												{
													OFFSET 2.676727 -1.545410 1.545409
													CHANNELS 3 Xrotation Yrotation Zrotation
													JOINT LeftHandThumb4
													{
														OFFSET 1.692226 -0.977005 0.977007
														CHANNELS 3 Xrotation Yrotation Zrotation
														End Site
														{
															OFFSET 0.000000 0.000000 0.000000
														}
													}
												}
											}
										}
										JOINT LeftHandIndex1
										{
											OFFSET 7.924831 -0.457527 2.345128
											CHANNELS 3 Xrotation Yrotation Zrotation
											JOINT LeftHandIndex2
											{
												OFFSET 3.643303 0.000000 0.000000
												CHANNELS 3 Xrotation Yrotation Zrotation
												JOINT LeftHandIndex3
												{
													OFFSET 3.810799 0.000000 0.000000
													CHANNELS 3 Xrotation Yrotation Zrotation
													JOINT LeftHandIndex4
													{
														OFFSET 2.403702 0.000000 0.000000
														CHANNELS 3 Xrotation Yrotation Zrotation
														End Site
														{
															OFFSET 0.000000 0.000000 0.000000
														}
													}
												}
											}
										}
										JOINT LeftHandMiddle1
										{
											OFFSET 8.563995 0.000000 -0.000000
											CHANNELS 3 Xrotation Yrotation Zrotation
											JOINT LeftHandMiddle2
											{
												OFFSET 3.861618 0.000000 0.000000
												CHANNELS 3 Xrotation Yrotation Zrotation
												JOINT LeftHandMiddle3
												{
													OFFSET 3.701603 0.000000 0.000000
													CHANNELS 3 Xrotation Yrotation Zrotation
													JOINT LeftHandMiddle4
													{
														OFFSET 2.322544 0.000000 0.000000
														CHANNELS 3 Xrotation Yrotation Zrotation
														End Site
														{
															OFFSET 0.000000 0.000000 0.000000
														}
													}
												}
											}
										}
										JOINT LeftHandRing1
										{
											OFFSET 8.426460 -0.424637 -3.286992
											CHANNELS 3 Xrotation Yrotation Zrotation
											JOINT LeftHandRing2
											{
												OFFSET 3.126408 0.000000 0.000000
												CHANNELS 3 Xrotation Yrotation Zrotation
												JOINT LeftHandRing3
												{
													OFFSET 3.085026 0.000000 0.000000
													CHANNELS 3 Xrotation Yrotation Zrotation
													JOINT LeftHandRing4
													{
														OFFSET 1.644005 0.000000 0.000000
														CHANNELS 3 Xrotation Yrotation Zrotation
														End Site
														{
															OFFSET 0.000000 0.000000 0.000000
														}
													}
												}
											}
										}
									}
								}
							}
						}
					}
					JOINT RightShoulder
					{
						OFFSET -2.196100 4.412496 0.070690
						CHANNELS 3 Xrotation Yrotation Zrotation
						JOINT RightShoulder_split
						{
							OFFSET -2.196100 4.412496 0.070690
							CHANNELS 3 Xrotation Yrotation Zrotation
							JOINT RightArm
							{
								OFFSET -8.771282 -2.981682 -0.094208
								CHANNELS 3 Xrotation Yrotation Zrotation
								JOINT RightForeArm
								{
									OFFSET -8.494598 0.000000 0.000000
									CHANNELS 3 Xrotation Yrotation Zrotation
									JOINT RightHand
									{
										OFFSET -18.483803 0.000000 0.000001
										CHANNELS 3 Xrotation Yrotation Zrotation
										JOINT RightHandThumb1
										{
											OFFSET -2.527351 -1.008072 2.575253
											CHANNELS 3 Xrotation Yrotation Zrotation
											JOINT RightHandThumb2
											{
												OFFSET -2.321518 -1.340328 1.340329
												CHANNELS 3 Xrotation Yrotation Zrotation
												JOINT RightHandThumb3
												{
													OFFSET -2.657753 -1.534454 1.534455
													CHANNELS 3 Xrotation Yrotation Zrotation
													JOINT RightHandThumb4
													{
														OFFSET -1.807510 -1.043568 1.043567
														CHANNELS 3 Xrotation Yrotation Zrotation
														End Site
														{
															OFFSET 0.000000 0.000000 0.000000
														}
													}
												}
											}
										}
										JOINT RightHandIndex1
										{
											OFFSET -8.811420 0.015533 2.887987
											CHANNELS 3 Xrotation Yrotation Zrotation
											JOINT RightHandIndex2
											{
												OFFSET -3.537502 0.000000 0.000000
												CHANNELS 3 Xrotation Yrotation Zrotation
												JOINT RightHandIndex3
												{
													OFFSET -3.356201 0.000000 0.000000
													CHANNELS 3 Xrotation Yrotation Zrotation
													JOINT RightHandIndex4
													{
														OFFSET -1.933098 0.000000 0.000000
														CHANNELS 3 Xrotation Yrotation Zrotation
														End Site
														{
															OFFSET 0.000000 0.000000 0.000000
														}
													}
												}
											}
										}
										JOINT RightHandMiddle1
										{
											OFFSET -8.178135 0.000000 0.000000
											CHANNELS 3 Xrotation Yrotation Zrotation
											JOINT RightHandMiddle2
											{
												OFFSET -3.901302 0.000000 0.000000
												CHANNELS 3 Xrotation Yrotation Zrotation
												JOINT RightHandMiddle3
												{
													OFFSET -3.909599 0.000000 0.000000
													CHANNELS 3 Xrotation Yrotation Zrotation
													JOINT RightHandMiddle4
													{
														OFFSET -2.376003 0.000000 0.000000
														CHANNELS 3 Xrotation Yrotation Zrotation
														End Site
														{
															OFFSET 0.000000 0.000000 0.000000
														}
													}
												}
											}
										}
										JOINT RightHandRing1
										{
											OFFSET -7.559013 0.014137 -2.865403
											CHANNELS 3 Xrotation Yrotation Zrotation
											JOINT RightHandRing2
											{
												OFFSET -3.449306 0.000000 0.000000
												CHANNELS 3 Xrotation Yrotation Zrotation
												JOINT RightHandRing3
												{
													OFFSET -3.362106 0.000000 0.000000
													CHANNELS 3 Xrotation Yrotation Zrotation
													JOINT RightHandRing4
													{
														OFFSET -2.076401 0.000000 0.000000
														CHANNELS 3 Xrotation Yrotation Zrotation
														End Site
														{
															OFFSET 0.000000 0.000000 0.000000
														}
													}
												}
											}
										}
									}
								}
							}
						}
					}
				}
			}
		}
	}
	JOINT LeftUpLeg
	{
		OFFSET 10.205400 -3.823500 0.155100
		CHANNELS 3 Xrotation Yrotation Zrotation
		JOINT LeftLeg
		{
			OFFSET 0.708757 -12.982077 0.567790
			CHANNELS 3 Xrotation Yrotation Zrotation
			JOINT LeftFoot
			{
				OFFSET -0.708756 -10.717838 -2.184338
				CHANNELS 3 Xrotation Yrotation Zrotation
				JOINT LeftToeBase
				{
					OFFSET 0.108149 -7.191104 7.560241
					CHANNELS 3 Xrotation Yrotation Zrotation
					JOINT LeftToe_End
					{
						OFFSET 0.070230 0.081724 4.490308
						CHANNELS 3 Xrotation Yrotation Zrotation
						End Site
						{
							OFFSET 0.000000 0.000000 0.000000
						}
					}
				}
			}
		}
	}
	JOINT RightUpLeg
	{
		OFFSET -10.205400 -3.823500 0.005500
		CHANNELS 3 Xrotation Yrotation Zrotation
		JOINT RightLeg
		{
			OFFSET -0.708756 -12.982134 0.610632
			CHANNELS 3 Xrotation Yrotation Zrotation
			JOINT RightFoot
			{
				OFFSET 0.708754 -10.717769 -1.945823
				CHANNELS 3 Xrotation Yrotation Zrotation
				JOINT RightToeBase
				{
					OFFSET -0.108140 -7.191069 7.372968
					CHANNELS 3 Xrotation Yrotation Zrotation
					JOINT RightToe_End
					{
						OFFSET -0.070227 0.081735 4.479403
						CHANNELS 3 Xrotation Yrotation Zrotation
						End Site
						{
							OFFSET 0.000000 0.000000 0.000000
						}
					}
				}
			}
		}
	}
}
MOTION
Frames: 4
Frame Time: 0.016667
-0.609312 32.913364 0.352459 -2.790372 -0.853655 2.017554 -3.723398 1.864724 3.236347 1.825087 0.204638 -3.563413 0.000000 0.000000 0.000000 1.839735 0.222339 -3.555415 0.005326 -3.044290 -0.019017 5.669666 4.099743 0.112406 0.000000 0.000000 -0.000000 3.264874 -13.066470 -8.920267 0.000000 0.000000 0.000000 12.299509 32.230812 -77.872243 0.000002 -37.449517 0.000011 11.318195 5.111731 -3.307907 -6.694188 7.651311 20.042548 11.568885 23.611313 -7.394431 5.302240 8.249623 -3.166213 -0.000000 0.000001 -0.000000 -0.982638 -2.594474 -15.812757 0.762384 3.154210 -27.170308 0.348204 2.165905 -18.263663 0.000001 0.000001 0.000003 -0.144672 0.710064 -18.764169 0.628387 2.878566 -24.623945 0.506806 2.597293 -22.079261 -0.000001 -0.000000 0.000002 0.773673 3.364645 -19.548500 1.234024 3.938343 -34.783599 0.010674 0.384135 -3.184744 -0.000000 0.000001 0.000003 1.454493 14.110511 8.503166 0.000000 0.000000 0.000000 54.678331 18.111679 70.211838 -0.000071 75.258760 0.000043 51.346377 35.160608 -70.815927 1.788482 4.679410 9.698151 4.637185 -8.634077 -0.225401 -7.859348 19.055190 -1.516532 -0.000002 0.000001 0.000003 8.183346 12.621747 -38.427935 0.272891 -1.932508 16.073508 0.241751 -1.821032 15.122725 -0.000000 0.000001 0.000000 3.398838 7.945793 -28.641159 0.564761 -2.749697 23.209756 2.103466 -0.073415 0.866152 -0.000001 -0.000003 -0.000000 1.368552 4.899679 -20.505912 0.144617 -1.413640 11.682871 -0.719815 -0.402320 2.985516 0.000000 0.000001 -0.000001 7.058701 -2.218112 -21.377720 8.020258 10.432910 6.114856 -18.394779 14.459838 11.319095 -7.789733 0.000011 0.000006 -0.000001 0.000001 0.000000 -26.412041 -6.215891 6.411044 35.146770 -11.991801 -2.952424 -9.664634 -15.624744 -6.554649 -0.242993 0.000001 0.000002 0.000000 -0.000003 -0.000000 
-0.607934 32.909531 0.361518 -2.789115 -0.868817 2.038775 -3.790248 1.881905 3.260239 1.845094 0.206904 -3.577331 0.000000 0.000000 0.000000 1.859861 0.224641 -3.569078 0.009549 -3.046895 -0.006451 5.643799 4.101381 0.127781 0.000000 0.000000 0.000000 3.286002 -13.114660 -8.932833 0.000000 0.000000 0.000000 12.556903 32.167797 -77.897044 0.000003 -37.526808 0.000022 11.076607 5.115563 -3.368715 -6.692601 7.656108 20.048851 11.568501 23.610388 -7.394137 5.302383 8.249944 -3.166261 -0.000003 -0.000003 -0.000002 -0.984551 -2.600915 -15.814577 0.762398 3.154227 -27.170414 0.348204 2.165913 -18.263779 0.000001 0.000001 0.000004 -0.143601 0.713499 -18.767060 0.628402 2.878625 -24.624458 0.506774 2.597207 -22.078506 0.000000 0.000000 -0.000000 0.775387 3.369363 -19.550047 1.233921 3.938206 -34.782216 0.010645 0.383572 -3.180083 0.000000 0.000000 0.000000 1.454915 14.140056 8.517069 0.000000 0.000000 0.000000 54.746613 17.804538 70.167947 0.000033 75.583570 -0.000051 51.021301 35.499529 -69.948022 1.808290 4.619858 9.771583 4.631476 -8.617666 -0.226281 -7.965946 19.394901 -1.495146 0.000006 -0.000002 0.000003 8.218617 12.665212 -38.428533 0.260936 -1.890569 15.715314 0.233619 -1.790681 14.864624 -0.000002 -0.000001 -0.000000 3.524977 8.091279 -29.060501 0.542031 -2.696012 22.730412 2.140621 -0.046548 0.553403 -0.000002 -0.000003 -0.000001 1.402238 4.961675 -20.710225 0.138326 -1.382720 11.423802 -0.722489 -0.369340 2.740181 -0.000001 0.000001 0.000001 7.107190 -2.253650 -21.408803 7.943520 10.428408 6.122480 -18.380112 14.475329 11.329281 -7.808636 0.000010 0.000003 0.000000 0.000001 0.000001 -26.449388 -6.215349 6.400826 35.251856 -11.992842 -2.981532 -9.727896 -15.632368 -6.524713 -0.216062 -0.000004 0.000001 -0.000000 -0.000004 -0.000000 
-0.606959 32.906017 0.370921 -2.790445 -0.885751 2.057355 -3.846275 1.896649 3.285829 1.862634 0.208559 -3.596378 0.000000 0.000000 0.000000 1.877539 0.226433 -3.587913 0.016665 -3.049433 0.004050 5.628731 4.096247 0.149510 -0.000000 -0.000000 0.000000 3.318900 -13.200832 -8.955613 0.000000 0.000000 0.000000 12.731999 32.102927 -77.867537 0.000000 -37.603606 0.000004 10.795355 5.116859 -3.465670 -6.694212 7.651534 20.054316 11.567893 23.609027 -7.393725 5.302729 8.250665 -3.166435 -0.000001 0.000001 -0.000000 -0.987163 -2.602660 -15.840542 0.762393 3.154230 -27.170511 0.348212 2.165915 -18.263803 -0.000001 0.000000 -0.000000 -0.146209 0.707051 -18.782520 0.628351 2.878517 -24.623442 0.506847 2.597363 -22.079802 0.000000 -0.000000 -0.000002 0.775218 3.367807 -19.567966 1.233908 3.938203 -34.782216 0.010632 0.383171 -3.176661 0.000000 0.000000 -0.000002 1.454917 14.165879 8.533143 0.000000 0.000000 0.000000 54.818729 17.557881 70.062380 -0.000012 75.912184 0.000012 50.633801 35.802971 -69.087186 1.823102 4.570000 9.855963 4.626447 -8.603852 -0.227172 -8.052941 19.681663 -1.476570 0.000001 -0.000000 0.000001 8.248145 12.701455 -38.429708 0.251179 -1.855541 15.416446 0.227065 -1.765858 14.653793 0.000004 -0.000000 0.000001 3.638019 8.218641 -29.430657 0.523440 -2.651356 22.332772 2.169814 -0.024064 0.287841 0.000001 -0.000001 -0.000001 1.433991 5.019225 -20.901689 0.132899 -1.355685 11.197506 -0.725067 -0.342197 2.538160 0.000001 0.000000 0.000000 7.161663 -2.287222 -21.437240 7.863475 10.424010 6.128151 -18.358766 14.455163 11.339315 -7.850243 0.000020 -0.000003 -0.000001 0.000000 -0.000000 -26.473400 -6.213456 6.396229 35.355829 -11.998766 -3.016426 -9.802016 -15.665971 -6.488412 -0.200177 -0.000010 -0.000002 0.000000 -0.000002 0.000000 
-0.606513 32.902496 0.380721 -2.794338 -0.903927 2.072415 -3.890838 1.908086 3.315349 1.877779 0.209558 -3.619556 0.000000 0.000000 0.000000 1.892844 0.227624 -3.610929 0.026440 -3.051733 0.011327 5.624674 4.084378 0.175621 -0.000000 0.000000 0.000000 3.362981 -13.321784 -8.988043 0.000000 0.000000 0.000000 12.831978 32.035752 -77.788553 -0.000006 -37.677304 -0.000029 10.468734 5.116992 -3.597202 -6.697724 7.641045 20.056179 11.567856 23.608906 -7.393676 5.303670 8.252845 -3.166971 -0.000002 0.000002 -0.000004 -0.989585 -2.601596 -15.873039 0.762393 3.154236 -27.170460 0.348203 2.165917 -18.263779 -0.000001 0.000001 0.000002 -0.151416 0.693345 -18.801813 0.628221 2.878211 -24.620706 0.506939 2.597606 -22.081978 0.000001 0.000000 -0.000003 0.773646 3.361982 -19.594004 1.233927 3.938220 -34.782373 0.010615 0.382981 -3.175141 -0.000000 -0.000000 -0.000002 1.454669 14.189417 8.551584 0.000000 0.000000 0.000000 54.897328 17.361603 69.904138 0.000028 76.243114 -0.000047 50.198789 36.073193 -68.237688 1.834432 4.526501 9.947616 4.621977 -8.591974 -0.228041 -8.126414 19.931219 -1.460126 0.000000 -0.000002 0.000003 8.273454 12.732382 -38.431043 0.242922 -1.825319 15.159135 0.221615 -1.744884 14.475898 0.000001 0.000003 0.000000 3.741508 8.332704 -29.765818 0.507822 -2.613002 21.992203 2.193895 -0.004614 0.055373 -0.000001 -0.000004 -0.000000 1.464257 5.073223 -21.083641 0.128145 -1.331420 10.994428 -0.727474 -0.319086 2.366312 0.000002 0.000000 -0.000000 7.222356 -2.331615 -21.470047 7.774908 10.418551 6.137442 -18.337595 14.442794 11.355919 -7.939496 0.000024 0.000002 -0.000000 -0.000002 -0.000000 -26.487071 -6.215945 6.394473 35.458688 -11.999497 -3.053142 -9.883250 -15.715408 -6.451008 -0.194390 0.000016 0.000005 0.000000 0.000002 -0.000000 
